<svg width="1339.8000000000002" height="413.6" xmlns="http://www.w3.org/2000/svg" xmlns:xlink="http://www.w3.org/1999/xlink"><line x1="471.625" y1="6.0" x2="471.625" y2="29.0" style="stroke:black; stroke-width:1px;" />
<line x1="471.625" y1="35.0" x2="165.0" y2="58.0" style="stroke:black; stroke-width:1px;" />
<line x1="471.625" y1="35.0" x2="190.5" y2="58.0" style="stroke:black; stroke-width:1px;" />
<line x1="190.5" y1="64.0" x2="190.5" y2="87.0" style="stroke:black; stroke-width:1px;" />
<line x1="190.5" y1="93.0" x2="25.25" y2="116.0" style="stroke:black; stroke-width:1px;" />
<line x1="190.5" y1="93.0" x2="47.25" y2="116.0" style="stroke:black; stroke-width:1px;" />
<line x1="47.25" y1="122.0" x2="19.5" y2="145.0" style="stroke:black; stroke-width:1px;" />
<line x1="47.25" y1="122.0" x2="49.5" y2="145.0" style="stroke:black; stroke-width:1px;" />
<line x1="47.25" y1="122.0" x2="75.0" y2="145.0" style="stroke:black; stroke-width:1px;" />
<line x1="75.0" y1="151.0" x2="75.0" y2="174.0" style="stroke:black; stroke-width:1px;" />
<line x1="190.5" y1="93.0" x2="92.375" y2="116.0" style="stroke:black; stroke-width:1px;" />
<line x1="190.5" y1="93.0" x2="137.5" y2="116.0" style="stroke:black; stroke-width:1px;" />
<line x1="137.5" y1="122.0" x2="112.0" y2="145.0" style="stroke:black; stroke-width:1px;" />
<line x1="137.5" y1="122.0" x2="137.5" y2="145.0" style="stroke:black; stroke-width:1px;" />
<line x1="137.5" y1="122.0" x2="163.0" y2="145.0" style="stroke:black; stroke-width:1px;" />
<line x1="163.0" y1="151.0" x2="163.0" y2="174.0" style="stroke:black; stroke-width:1px;" />
<line x1="190.5" y1="93.0" x2="186.0" y2="116.0" style="stroke:black; stroke-width:1px;" />
<line x1="190.5" y1="93.0" x2="234.5" y2="116.0" style="stroke:black; stroke-width:1px;" />
<line x1="234.5" y1="122.0" x2="206.0" y2="145.0" style="stroke:black; stroke-width:1px;" />
<line x1="234.5" y1="122.0" x2="237.5" y2="145.0" style="stroke:black; stroke-width:1px;" />
<line x1="234.5" y1="122.0" x2="263.0" y2="145.0" style="stroke:black; stroke-width:1px;" />
<line x1="263.0" y1="151.0" x2="263.0" y2="174.0" style="stroke:black; stroke-width:1px;" />
<line x1="190.5" y1="93.0" x2="284.125" y2="116.0" style="stroke:black; stroke-width:1px;" />
<line x1="190.5" y1="93.0" x2="333.75" y2="116.0" style="stroke:black; stroke-width:1px;" />
<line x1="333.75" y1="122.0" x2="305.5" y2="145.0" style="stroke:black; stroke-width:1px;" />
<line x1="333.75" y1="122.0" x2="336.5" y2="145.0" style="stroke:black; stroke-width:1px;" />
<line x1="333.75" y1="122.0" x2="362.0" y2="145.0" style="stroke:black; stroke-width:1px;" />
<line x1="362.0" y1="151.0" x2="362.0" y2="174.0" style="stroke:black; stroke-width:1px;" />
<line x1="362.0" y1="180.0" x2="302.0" y2="203.0" style="stroke:black; stroke-width:1px;" />
<line x1="362.0" y1="180.0" x2="327.5" y2="203.0" style="stroke:black; stroke-width:1px;" />
<line x1="327.5" y1="209.0" x2="327.5" y2="232.0" style="stroke:black; stroke-width:1px;" />
<line x1="362.0" y1="180.0" x2="362.0" y2="203.0" style="stroke:black; stroke-width:1px;" />
<line x1="362.0" y1="180.0" x2="396.5" y2="203.0" style="stroke:black; stroke-width:1px;" />
<line x1="396.5" y1="209.0" x2="396.5" y2="232.0" style="stroke:black; stroke-width:1px;" />
<line x1="362.0" y1="180.0" x2="422.0" y2="203.0" style="stroke:black; stroke-width:1px;" />
<line x1="190.5" y1="93.0" x2="355.75" y2="116.0" style="stroke:black; stroke-width:1px;" />
<line x1="471.625" y1="35.0" x2="318.625" y2="58.0" style="stroke:black; stroke-width:1px;" />
<line x1="471.625" y1="35.0" x2="446.75" y2="58.0" style="stroke:black; stroke-width:1px;" />
<line x1="446.75" y1="64.0" x2="446.75" y2="87.0" style="stroke:black; stroke-width:1px;" />
<line x1="446.75" y1="93.0" x2="370.25" y2="116.0" style="stroke:black; stroke-width:1px;" />
<line x1="446.75" y1="93.0" x2="395.75" y2="116.0" style="stroke:black; stroke-width:1px;" />
<line x1="395.75" y1="122.0" x2="395.75" y2="145.0" style="stroke:black; stroke-width:1px;" />
<line x1="446.75" y1="93.0" x2="421.25" y2="116.0" style="stroke:black; stroke-width:1px;" />
<line x1="446.75" y1="93.0" x2="446.75" y2="116.0" style="stroke:black; stroke-width:1px;" />
<line x1="446.75" y1="122.0" x2="446.75" y2="145.0" style="stroke:black; stroke-width:1px;" />
<line x1="446.75" y1="93.0" x2="472.25" y2="116.0" style="stroke:black; stroke-width:1px;" />
<line x1="446.75" y1="93.0" x2="497.75" y2="116.0" style="stroke:black; stroke-width:1px;" />
<line x1="497.75" y1="122.0" x2="497.75" y2="145.0" style="stroke:black; stroke-width:1px;" />
<line x1="446.75" y1="93.0" x2="523.25" y2="116.0" style="stroke:black; stroke-width:1px;" />
<line x1="471.625" y1="35.0" x2="472.25" y2="58.0" style="stroke:black; stroke-width:1px;" />
<line x1="471.625" y1="35.0" x2="497.75" y2="58.0" style="stroke:black; stroke-width:1px;" />
<line x1="497.75" y1="64.0" x2="497.75" y2="87.0" style="stroke:black; stroke-width:1px;" />
<line x1="471.625" y1="35.0" x2="523.25" y2="58.0" style="stroke:black; stroke-width:1px;" />
<line x1="471.625" y1="35.0" x2="548.75" y2="58.0" style="stroke:black; stroke-width:1px;" />
<line x1="548.75" y1="64.0" x2="548.75" y2="87.0" style="stroke:black; stroke-width:1px;" />
<line x1="471.625" y1="35.0" x2="574.25" y2="58.0" style="stroke:black; stroke-width:1px;" />
<line x1="471.625" y1="35.0" x2="599.75" y2="58.0" style="stroke:black; stroke-width:1px;" />
<line x1="599.75" y1="64.0" x2="599.75" y2="87.0" style="stroke:black; stroke-width:1px;" />
<line x1="599.75" y1="93.0" x2="599.75" y2="116.0" style="stroke:black; stroke-width:1px;" />
<line x1="471.625" y1="35.0" x2="625.25" y2="58.0" style="stroke:black; stroke-width:1px;" />
<line x1="471.625" y1="35.0" x2="650.75" y2="58.0" style="stroke:black; stroke-width:1px;" />
<line x1="650.75" y1="64.0" x2="650.75" y2="87.0" style="stroke:black; stroke-width:1px;" />
<line x1="650.75" y1="93.0" x2="650.75" y2="116.0" style="stroke:black; stroke-width:1px;" />
<line x1="471.625" y1="35.0" x2="676.25" y2="58.0" style="stroke:black; stroke-width:1px;" />
<line x1="471.625" y1="35.0" x2="701.75" y2="58.0" style="stroke:black; stroke-width:1px;" />
<line x1="701.75" y1="64.0" x2="701.75" y2="87.0" style="stroke:black; stroke-width:1px;" />
<line x1="471.625" y1="35.0" x2="727.25" y2="58.0" style="stroke:black; stroke-width:1px;" />
<line x1="471.625" y1="35.0" x2="752.75" y2="58.0" style="stroke:black; stroke-width:1px;" />
<line x1="752.75" y1="64.0" x2="752.75" y2="87.0" style="stroke:black; stroke-width:1px;" />
<line x1="752.75" y1="93.0" x2="730.75" y2="116.0" style="stroke:black; stroke-width:1px;" />
<line x1="752.75" y1="93.0" x2="752.75" y2="116.0" style="stroke:black; stroke-width:1px;" />
<line x1="752.75" y1="122.0" x2="720.5" y2="145.0" style="stroke:black; stroke-width:1px;" />
<line x1="752.75" y1="122.0" x2="759.5" y2="145.0" style="stroke:black; stroke-width:1px;" />
<line x1="752.75" y1="122.0" x2="785.0" y2="145.0" style="stroke:black; stroke-width:1px;" />
<line x1="785.0" y1="151.0" x2="785.0" y2="174.0" style="stroke:black; stroke-width:1px;" />
<line x1="752.75" y1="93.0" x2="774.75" y2="116.0" style="stroke:black; stroke-width:1px;" />
<line x1="471.625" y1="35.0" x2="778.25" y2="58.0" style="stroke:black; stroke-width:1px;" />
<rect x="322.75" y="116.0" width="22.0" height="12.0" style="fill:orange; stroke:rgb(0,0,0);" rx="1"/>
<text x="324" y="125" style="font-family:sans-serif;font-size:10px;">
pair
</text>
<rect x="492.75" y="145.0" width="10.0" height="12.0" style="fill:orange; stroke:rgb(0,0,0);" rx="1"/>
<text x="494" y="154" style="font-family:sans-serif;font-size:10px;">
3
</text>
<rect x="381.5" y="203.0" width="30.0" height="12.0" style="fill:orange; stroke:rgb(0,0,0);" rx="1"/>
<text x="383" y="212" style="font-family:sans-serif;font-size:10px;">
value
</text>
<rect x="737.75" y="58.0" width="30.0" height="12.0" style="fill:orange; stroke:rgb(0,0,0);" rx="1"/>
<text x="739" y="67" style="font-family:sans-serif;font-size:10px;">
value
</text>
<rect x="134.0" y="145.0" width="7.0" height="12.0" style="fill:orange; stroke:rgb(0,0,0);" rx="1"/>
<text x="136" y="154" style="font-family:sans-serif;font-size:10px;">
:
</text>
<rect x="635.75" y="58.0" width="30.0" height="12.0" style="fill:orange; stroke:rgb(0,0,0);" rx="1"/>
<text x="637" y="67" style="font-family:sans-serif;font-size:10px;">
value
</text>
<rect x="312.5" y="203.0" width="30.0" height="12.0" style="fill:orange; stroke:rgb(0,0,0);" rx="1"/>
<text x="314" y="212" style="font-family:sans-serif;font-size:10px;">
value
</text>
<rect x="297.0" y="232.0" width="61.0" height="12.0" style="fill:orange; stroke:rgb(0,0,0);" rx="1"/>
<text x="299" y="241" style="font-family:sans-serif;font-size:10px;">
"baskteball"
</text>
<rect x="155.0" y="174.0" width="16.0" height="12.0" style="fill:orange; stroke:rgb(0,0,0);" rx="1"/>
<text x="157" y="183" style="font-family:sans-serif;font-size:10px;">
18
</text>
<rect x="347.0" y="145.0" width="30.0" height="12.0" style="fill:orange; stroke:rgb(0,0,0);" rx="1"/>
<text x="349" y="154" style="font-family:sans-serif;font-size:10px;">
value
</text>
<rect x="223.5" y="116.0" width="22.0" height="12.0" style="fill:orange; stroke:rgb(0,0,0);" rx="1"/>
<text x="225" y="125" style="font-family:sans-serif;font-size:10px;">
pair
</text>
<rect x="686.75" y="58.0" width="30.0" height="12.0" style="fill:orange; stroke:rgb(0,0,0);" rx="1"/>
<text x="688" y="67" style="font-family:sans-serif;font-size:10px;">
value
</text>
<rect x="770.0" y="145.0" width="30.0" height="12.0" style="fill:orange; stroke:rgb(0,0,0);" rx="1"/>
<text x="772" y="154" style="font-family:sans-serif;font-size:10px;">
value
</text>
<rect x="468.75" y="58.0" width="7.0" height="12.0" style="fill:orange; stroke:rgb(0,0,0);" rx="1"/>
<text x="470" y="67" style="font-family:sans-serif;font-size:10px;">
,
</text>
<rect x="570.75" y="58.0" width="7.0" height="12.0" style="fill:orange; stroke:rgb(0,0,0);" rx="1"/>
<text x="572" y="67" style="font-family:sans-serif;font-size:10px;">
,
</text>
<rect x="431.75" y="116.0" width="30.0" height="12.0" style="fill:orange; stroke:rgb(0,0,0);" rx="1"/>
<text x="433" y="125" style="font-family:sans-serif;font-size:10px;">
value
</text>
<rect x="726.75" y="116.0" width="8.0" height="12.0" style="fill:orange; stroke:rgb(0,0,0);" rx="1"/>
<text x="728" y="125" style="font-family:sans-serif;font-size:10px;">
{
</text>
<rect x="736.25" y="87.0" width="33.0" height="12.0" style="fill:orange; stroke:rgb(0,0,0);" rx="1"/>
<text x="738" y="96" style="font-family:sans-serif;font-size:10px;">
object
</text>
<rect x="285.0" y="145.0" width="41.0" height="12.0" style="fill:orange; stroke:rgb(0,0,0);" rx="1"/>
<text x="287" y="154" style="font-family:sans-serif;font-size:10px;">
"habbit"
</text>
<rect x="758.0" y="174.0" width="54.0" height="12.0" style="fill:orange; stroke:rgb(0,0,0);" rx="1"/>
<text x="760" y="183" style="font-family:sans-serif;font-size:10px;">
"songguo"
</text>
<rect x="621.75" y="58.0" width="7.0" height="12.0" style="fill:orange; stroke:rgb(0,0,0);" rx="1"/>
<text x="623" y="67" style="font-family:sans-serif;font-size:10px;">
,
</text>
<rect x="431.75" y="58.0" width="30.0" height="12.0" style="fill:orange; stroke:rgb(0,0,0);" rx="1"/>
<text x="433" y="67" style="font-family:sans-serif;font-size:10px;">
value
</text>
<rect x="468.75" y="116.0" width="7.0" height="12.0" style="fill:orange; stroke:rgb(0,0,0);" rx="1"/>
<text x="470" y="125" style="font-family:sans-serif;font-size:10px;">
,
</text>
<rect x="347.0" y="174.0" width="30.0" height="12.0" style="fill:orange; stroke:rgb(0,0,0);" rx="1"/>
<text x="349" y="183" style="font-family:sans-serif;font-size:10px;">
array
</text>
<rect x="637.25" y="116.0" width="27.0" height="12.0" style="fill:orange; stroke:rgb(0,0,0);" rx="1"/>
<text x="639" y="125" style="font-family:sans-serif;font-size:10px;">
false
</text>
<rect x="298.5" y="203.0" width="7.0" height="12.0" style="fill:orange; stroke:rgb(0,0,0);" rx="1"/>
<text x="300" y="212" style="font-family:sans-serif;font-size:10px;">
[
</text>
<rect x="234.0" y="145.0" width="7.0" height="12.0" style="fill:orange; stroke:rgb(0,0,0);" rx="1"/>
<text x="236" y="154" style="font-family:sans-serif;font-size:10px;">
:
</text>
<rect x="60.0" y="145.0" width="30.0" height="12.0" style="fill:orange; stroke:rgb(0,0,0);" rx="1"/>
<text x="62" y="154" style="font-family:sans-serif;font-size:10px;">
value
</text>
<rect x="185.0" y="145.0" width="42.0" height="12.0" style="fill:orange; stroke:rgb(0,0,0);" rx="1"/>
<text x="187" y="154" style="font-family:sans-serif;font-size:10px;">
"agend"
</text>
<rect x="587.75" y="87.0" width="24.0" height="12.0" style="fill:orange; stroke:rgb(0,0,0);" rx="1"/>
<text x="589" y="96" style="font-family:sans-serif;font-size:10px;">
bool
</text>
<rect x="741.75" y="116.0" width="22.0" height="12.0" style="fill:orange; stroke:rgb(0,0,0);" rx="1"/>
<text x="743" y="125" style="font-family:sans-serif;font-size:10px;">
pair
</text>
<rect x="417.75" y="116.0" width="7.0" height="12.0" style="fill:orange; stroke:rgb(0,0,0);" rx="1"/>
<text x="419" y="125" style="font-family:sans-serif;font-size:10px;">
,
</text>
<rect x="380.75" y="116.0" width="30.0" height="12.0" style="fill:orange; stroke:rgb(0,0,0);" rx="1"/>
<text x="382" y="125" style="font-family:sans-serif;font-size:10px;">
value
</text>
<rect x="161.5" y="58.0" width="7.0" height="12.0" style="fill:orange; stroke:rgb(0,0,0);" rx="1"/>
<text x="163" y="67" style="font-family:sans-serif;font-size:10px;">
[
</text>
<rect x="770.75" y="116.0" width="8.0" height="12.0" style="fill:orange; stroke:rgb(0,0,0);" rx="1"/>
<text x="772" y="125" style="font-family:sans-serif;font-size:10px;">
}
</text>
<rect x="486.75" y="87.0" width="22.0" height="12.0" style="fill:orange; stroke:rgb(0,0,0);" rx="1"/>
<text x="488" y="96" style="font-family:sans-serif;font-size:10px;">
123
</text>
<rect x="21.25" y="116.0" width="8.0" height="12.0" style="fill:orange; stroke:rgb(0,0,0);" rx="1"/>
<text x="23" y="125" style="font-family:sans-serif;font-size:10px;">
{
</text>
<rect x="463.125" y="0.0" width="17.0" height="12.0" style="fill:orange; stroke:rgb(0,0,0);" rx="1"/>
<text x="465" y="9" style="font-family:sans-serif;font-size:10px;">
init
</text>
<rect x="519.75" y="58.0" width="7.0" height="12.0" style="fill:orange; stroke:rgb(0,0,0);" rx="1"/>
<text x="521" y="67" style="font-family:sans-serif;font-size:10px;">
,
</text>
<rect x="482.75" y="116.0" width="30.0" height="12.0" style="fill:orange; stroke:rgb(0,0,0);" rx="1"/>
<text x="484" y="125" style="font-family:sans-serif;font-size:10px;">
value
</text>
<rect x="519.75" y="116.0" width="7.0" height="12.0" style="fill:orange; stroke:rgb(0,0,0);" rx="1"/>
<text x="521" y="125" style="font-family:sans-serif;font-size:10px;">
]
</text>
<rect x="280.625" y="116.0" width="7.0" height="12.0" style="fill:orange; stroke:rgb(0,0,0);" rx="1"/>
<text x="282" y="125" style="font-family:sans-serif;font-size:10px;">
,
</text>
<rect x="431.75" y="87.0" width="30.0" height="12.0" style="fill:orange; stroke:rgb(0,0,0);" rx="1"/>
<text x="433" y="96" style="font-family:sans-serif;font-size:10px;">
array
</text>
<rect x="148.0" y="145.0" width="30.0" height="12.0" style="fill:orange; stroke:rgb(0,0,0);" rx="1"/>
<text x="150" y="154" style="font-family:sans-serif;font-size:10px;">
value
</text>
<rect x="365.0" y="232.0" width="63.0" height="12.0" style="fill:orange; stroke:rgb(0,0,0);" rx="1"/>
<text x="367" y="241" style="font-family:sans-serif;font-size:10px;">
"pingp\"ang"
</text>
<rect x="456.625" y="29.0" width="30.0" height="12.0" style="fill:orange; stroke:rgb(0,0,0);" rx="1"/>
<text x="458" y="38" style="font-family:sans-serif;font-size:10px;">
array
</text>
<rect x="333.0" y="145.0" width="7.0" height="12.0" style="fill:orange; stroke:rgb(0,0,0);" rx="1"/>
<text x="335" y="154" style="font-family:sans-serif;font-size:10px;">
:
</text>
<rect x="358.5" y="203.0" width="7.0" height="12.0" style="fill:orange; stroke:rgb(0,0,0);" rx="1"/>
<text x="360" y="212" style="font-family:sans-serif;font-size:10px;">
,
</text>
<rect x="533.75" y="58.0" width="30.0" height="12.0" style="fill:orange; stroke:rgb(0,0,0);" rx="1"/>
<text x="535" y="67" style="font-family:sans-serif;font-size:10px;">
value
</text>
<rect x="366.75" y="116.0" width="7.0" height="12.0" style="fill:orange; stroke:rgb(0,0,0);" rx="1"/>
<text x="368" y="125" style="font-family:sans-serif;font-size:10px;">
[
</text>
<rect x="723.75" y="58.0" width="7.0" height="12.0" style="fill:orange; stroke:rgb(0,0,0);" rx="1"/>
<text x="725" y="67" style="font-family:sans-serif;font-size:10px;">
,
</text>
<rect x="246.5" y="174.0" width="33.0" height="12.0" style="fill:orange; stroke:rgb(0,0,0);" rx="1"/>
<text x="248" y="183" style="font-family:sans-serif;font-size:10px;">
"men"
</text>
<rect x="174.0" y="87.0" width="33.0" height="12.0" style="fill:orange; stroke:rgb(0,0,0);" rx="1"/>
<text x="176" y="96" style="font-family:sans-serif;font-size:10px;">
object
</text>
<rect x="88.875" y="116.0" width="7.0" height="12.0" style="fill:orange; stroke:rgb(0,0,0);" rx="1"/>
<text x="90" y="125" style="font-family:sans-serif;font-size:10px;">
,
</text>
<rect x="774.75" y="58.0" width="7.0" height="12.0" style="fill:orange; stroke:rgb(0,0,0);" rx="1"/>
<text x="776" y="67" style="font-family:sans-serif;font-size:10px;">
]
</text>
<rect x="672.75" y="58.0" width="7.0" height="12.0" style="fill:orange; stroke:rgb(0,0,0);" rx="1"/>
<text x="674" y="67" style="font-family:sans-serif;font-size:10px;">
,
</text>
<rect x="182.5" y="116.0" width="7.0" height="12.0" style="fill:orange; stroke:rgb(0,0,0);" rx="1"/>
<text x="184" y="125" style="font-family:sans-serif;font-size:10px;">
,
</text>
<rect x="97.0" y="145.0" width="30.0" height="12.0" style="fill:orange; stroke:rgb(0,0,0);" rx="1"/>
<text x="99" y="154" style="font-family:sans-serif;font-size:10px;">
"age"
</text>
<rect x="536.75" y="87.0" width="24.0" height="12.0" style="fill:orange; stroke:rgb(0,0,0);" rx="1"/>
<text x="538" y="96" style="font-family:sans-serif;font-size:10px;">
"hh"
</text>
<rect x="638.75" y="87.0" width="24.0" height="12.0" style="fill:orange; stroke:rgb(0,0,0);" rx="1"/>
<text x="640" y="96" style="font-family:sans-serif;font-size:10px;">
bool
</text>
<rect x="692.0" y="145.0" width="57.0" height="12.0" style="fill:orange; stroke:rgb(0,0,0);" rx="1"/>
<text x="694" y="154" style="font-family:sans-serif;font-size:10px;">
"company"
</text>
<rect x="248.0" y="145.0" width="30.0" height="12.0" style="fill:orange; stroke:rgb(0,0,0);" rx="1"/>
<text x="250" y="154" style="font-family:sans-serif;font-size:10px;">
value
</text>
<rect x="482.75" y="58.0" width="30.0" height="12.0" style="fill:orange; stroke:rgb(0,0,0);" rx="1"/>
<text x="484" y="67" style="font-family:sans-serif;font-size:10px;">
value
</text>
<rect x="584.75" y="58.0" width="30.0" height="12.0" style="fill:orange; stroke:rgb(0,0,0);" rx="1"/>
<text x="586" y="67" style="font-family:sans-serif;font-size:10px;">
value
</text>
<rect x="46.0" y="145.0" width="7.0" height="12.0" style="fill:orange; stroke:rgb(0,0,0);" rx="1"/>
<text x="48" y="154" style="font-family:sans-serif;font-size:10px;">
:
</text>
<rect x="691.75" y="87.0" width="20.0" height="12.0" style="fill:orange; stroke:rgb(0,0,0);" rx="1"/>
<text x="693" y="96" style="font-family:sans-serif;font-size:10px;">
null
</text>
<rect x="36.25" y="116.0" width="22.0" height="12.0" style="fill:orange; stroke:rgb(0,0,0);" rx="1"/>
<text x="38" y="125" style="font-family:sans-serif;font-size:10px;">
pair
</text>
<rect x="0.0" y="145.0" width="39.0" height="12.0" style="fill:orange; stroke:rgb(0,0,0);" rx="1"/>
<text x="2" y="154" style="font-family:sans-serif;font-size:10px;">
"name"
</text>
<rect x="175.5" y="58.0" width="30.0" height="12.0" style="fill:orange; stroke:rgb(0,0,0);" rx="1"/>
<text x="177" y="67" style="font-family:sans-serif;font-size:10px;">
value
</text>
<rect x="441.75" y="145.0" width="10.0" height="12.0" style="fill:orange; stroke:rgb(0,0,0);" rx="1"/>
<text x="443" y="154" style="font-family:sans-serif;font-size:10px;">
2
</text>
<rect x="418.5" y="203.0" width="7.0" height="12.0" style="fill:orange; stroke:rgb(0,0,0);" rx="1"/>
<text x="420" y="212" style="font-family:sans-serif;font-size:10px;">
]
</text>
<rect x="390.75" y="145.0" width="10.0" height="12.0" style="fill:orange; stroke:rgb(0,0,0);" rx="1"/>
<text x="392" y="154" style="font-family:sans-serif;font-size:10px;">
1
</text>
<rect x="58.5" y="174.0" width="33.0" height="12.0" style="fill:orange; stroke:rgb(0,0,0);" rx="1"/>
<text x="60" y="183" style="font-family:sans-serif;font-size:10px;">
"lis\"i'"
</text>
<rect x="126.5" y="116.0" width="22.0" height="12.0" style="fill:orange; stroke:rgb(0,0,0);" rx="1"/>
<text x="128" y="125" style="font-family:sans-serif;font-size:10px;">
pair
</text>
<rect x="351.75" y="116.0" width="8.0" height="12.0" style="fill:orange; stroke:rgb(0,0,0);" rx="1"/>
<text x="353" y="125" style="font-family:sans-serif;font-size:10px;">
}
</text>
<rect x="315.125" y="58.0" width="7.0" height="12.0" style="fill:orange; stroke:rgb(0,0,0);" rx="1"/>
<text x="317" y="67" style="font-family:sans-serif;font-size:10px;">
,
</text>
<rect x="756.0" y="145.0" width="7.0" height="12.0" style="fill:orange; stroke:rgb(0,0,0);" rx="1"/>
<text x="758" y="154" style="font-family:sans-serif;font-size:10px;">
:
</text>
<rect x="588.25" y="116.0" width="23.0" height="12.0" style="fill:orange; stroke:rgb(0,0,0);" rx="1"/>
<text x="590" y="125" style="font-family:sans-serif;font-size:10px;">
true
</text>
</svg>